# xmcd
# 
# Track frame offsets:
#     150
#     16334
#     31554
#     48889
#     65158
#     97267
#     128257
#     158494
# 
# Disc length: 2564 seconds
# 
# Revision: 5
# Processed by: cddbd v1.4PL0 Copyright (c) Steve Scherf et al.
# Submitted via: BonkEnc v1.0beta1
# 
DISCID=560a0208
DTITLE=E Nomine - Vater Unser
DYEAR=1999
DGENRE=Trance
TTITLE0=Vater Unser (Video Edit)
TTITLE1=Vater Unser (Radio Mix)
TTITLE2=Psalm 23 (Video Edit)
TTITLE3=Psalm 23 (Radio Mix)
TTITLE4=Psalm 23 (Club Mix)
TTITLE5=Vater Unser (Original Club Mix)
TTITLE6=Vater Unser (Mellow D Remix)
TTITLE7=Vater Unser (Pulsedriver Remix)
EXTD=
EXTT0=
EXTT1=
EXTT2=
EXTT3=
EXTT4=
EXTT5=
EXTT6=
EXTT7=
PLAYORDER=
